HIERARCHY
ROOT Hips
{
	OFFSET -0.001795 -0.223333 0.028219
	CHANNELS 6 Xposition Yposition Zposition Zrotation Yrotation Xrotation 
	JOINT LeftUpLeg
	{
		OFFSET 0.069520 -0.091406 -0.006815
		CHANNELS 3 Zrotation Yrotation Xrotation
		JOINT LeftLeg
		{
			OFFSET 0.034277 -0.375199 -0.004496
			CHANNELS 3 Zrotation Yrotation Xrotation
			JOINT LeftFoot
			{
				OFFSET -0.013596 -0.397961 -0.043693
				CHANNELS 3 Zrotation Yrotation Xrotation
				JOINT LeftToe
				{
					OFFSET 0.026358 -0.055791 0.119288
					CHANNELS 3 Zrotation Yrotation Xrotation
					End Site
					{
						OFFSET 0.000000 0.000000 0.000000
					}
				}
			}
		}
	}
	JOINT RightUpLeg
	{
		OFFSET -0.067670 -0.090522 -0.004320
		CHANNELS 3 Zrotation Yrotation Xrotation
		JOINT RightLeg
		{
			OFFSET -0.038290 -0.382569 -0.008850
			CHANNELS 3 Zrotation Yrotation Xrotation
			JOINT RightFoot
			{
				OFFSET 0.015774 -0.398415 -0.042312
				CHANNELS 3 Zrotation Yrotation Xrotation
				JOINT RightToe
				{
					OFFSET -0.025372 -0.048144 0.123348
					CHANNELS 3 Zrotation Yrotation Xrotation
					End Site
					{
						OFFSET 0.000000 0.000000 0.000000
					}
				}
			}
		}
	}
	JOINT Spine
	{
		OFFSET -0.002533 0.108963 -0.026696
		CHANNELS 3 Zrotation Yrotation Xrotation
		JOINT Spine1
		{
			OFFSET 0.005487 0.135180 0.001092
			CHANNELS 3 Zrotation Yrotation Xrotation
			JOINT Spine2
			{
				OFFSET 0.001457 0.052922 0.025425
				CHANNELS 3 Zrotation Yrotation Xrotation
				JOINT Neck
				{
					OFFSET -0.002778 0.213870 -0.042857
					CHANNELS 3 Zrotation Yrotation Xrotation
					JOINT Head
					{
						OFFSET 0.005152 0.064970 0.051349
						CHANNELS 3 Zrotation Yrotation Xrotation
						End Site
						{
							OFFSET 0.000000 0.000000 0.000000
						}
					}
				}
				JOINT LeftShoulder
				{
					OFFSET 0.078845 0.121749 -0.034090
					CHANNELS 3 Zrotation Yrotation Xrotation
					JOINT LeftArm
					{
						OFFSET 0.090977 0.030469 -0.008868
						CHANNELS 3 Zrotation Yrotation Xrotation
						JOINT LeftForeArm
						{
							OFFSET 0.259612 -0.012772 -0.027456
							CHANNELS 3 Zrotation Yrotation Xrotation
							JOINT LeftHand
							{
								OFFSET 0.249234 0.008986 -0.001171
								CHANNELS 3 Zrotation Yrotation Xrotation
								End Site
								{
									OFFSET 0.000000 0.000000 0.000000
								}
							}
						}
					}
				}
				JOINT RightShoulder
				{
					OFFSET -0.081759 0.118833 -0.038615
					CHANNELS 3 Zrotation Yrotation Xrotation
					JOINT RightArm
					{
						OFFSET -0.096012 0.032551 -0.009143
						CHANNELS 3 Zrotation Yrotation Xrotation
						JOINT RightForeArm
						{
							OFFSET -0.253742 -0.013329 -0.021401
							CHANNELS 3 Zrotation Yrotation Xrotation
							JOINT RightHand
							{
								OFFSET -0.255298 0.007772 -0.005559
								CHANNELS 3 Zrotation Yrotation Xrotation
								End Site
								{
									OFFSET 0.000000 0.000000 0.000000
								}
							}
						}
					}
				}
			}
		}
	}
}
MOTION
Frames: 10
Frame Time: 0.050000
0.000000 0.938698 0.000000 -3.163561 -2.699149 16.066127 13.560674 0.045554 -17.268444 -5.711503 0.644329 0.174001 8.391680 17.816840 13.682202 0.000000 0.000000 0.000000 -5.457729 1.497429 -19.722511 4.100005 -0.361464 3.882208 -7.574185 -19.580905 14.507411 0.000000 0.000000 0.000000 -3.346814 0.016480 23.391012 4.715967 -0.915611 -17.039272 -0.548197 1.299759 25.150852 -2.232225 2.674224 -22.760262 0.000000 0.000000 0.000000 -27.608228 -20.066226 11.755210 -39.626925 -37.678410 5.208139 10.092705 -19.784521 -0.722718 0.000000 0.000000 0.000000 15.442524 27.219878 13.404879 43.818010 40.100416 8.286686 -11.384186 16.626519 -0.793530 0.000000 0.000000 0.000000 
-0.000189 0.940734 0.003450 -3.164413 -3.643719 14.743405 13.074915 -0.019431 -14.960502 -4.919699 0.553608 -0.726531 7.550322 16.464144 15.063036 0.000000 0.000000 0.000000 -5.897501 1.327479 -17.354802 5.561275 -0.528752 2.915241 -7.199830 -19.023231 15.380072 0.000000 0.000000 0.000000 -3.027194 -0.023809 19.799429 5.111598 -1.162899 -15.601134 -0.918067 1.507762 25.659966 -2.949913 3.124316 -24.960795 0.000000 0.000000 0.000000 -30.257999 -17.183923 10.212620 -38.569871 -34.293153 3.772167 6.634088 -23.694524 -0.193947 0.000000 0.000000 0.000000 15.554365 25.471266 12.341301 47.660772 38.786171 8.813502 -12.342860 18.928109 -1.031293 0.000000 0.000000 0.000000 
-0.000576 0.941285 0.008337 -2.425154 -3.446866 12.466904 12.278157 -0.126018 -12.449981 -4.974064 0.562053 -0.538725 7.433218 16.280202 14.135826 0.000000 0.000000 0.000000 -6.322722 1.130199 -15.231788 4.651808 -0.427958 4.087607 -6.827546 -18.353263 15.945203 0.000000 0.000000 0.000000 -3.002340 -0.041103 17.469327 5.204486 -1.250480 -15.042095 -1.753132 1.866508 25.130922 -1.523665 2.244138 -20.045864 0.000000 0.000000 0.000000 -30.585182 -14.994458 8.385770 -40.000564 -31.333249 3.158518 1.998357 -22.658085 0.663267 0.000000 0.000000 0.000000 18.570911 22.821961 11.570799 47.594998 34.044086 6.706530 -9.655710 22.680041 -0.803710 0.000000 0.000000 0.000000 
-0.000950 0.941260 0.014036 -2.110761 -5.071160 11.436025 11.398302 -0.164295 -9.618346 -4.515517 0.516936 -2.211557 7.809127 16.703823 14.657416 0.000000 0.000000 0.000000 -6.676385 1.020540 -13.170276 4.579369 -0.402916 2.780205 -6.641504 -18.195925 15.899155 0.000000 0.000000 0.000000 -3.665300 0.121455 13.335403 5.537842 -1.385865 -15.206654 -2.065336 2.007288 26.530360 -1.800110 2.338192 -20.567327 0.000000 0.000000 0.000000 -29.523664 -11.188138 6.050400 -43.148198 -26.885987 1.836524 -0.870445 -23.913985 1.346574 0.000000 0.000000 0.000000 19.039623 19.700684 9.660005 49.942099 30.176233 5.370003 -7.117581 25.537363 -0.387133 0.000000 0.000000 0.000000 
-0.001454 0.941896 0.020514 -1.568138 -4.854668 9.334423 10.777052 -0.192855 -6.585340 -4.463646 0.508855 -2.964389 7.477602 16.224880 14.225911 0.000000 0.000000 0.000000 -6.793246 0.819749 -10.073840 3.629150 -0.305265 2.435264 -6.076933 -17.158271 15.502963 0.000000 0.000000 0.000000 -3.636858 0.092181 9.962462 5.594242 -1.428102 -15.200666 -2.290159 1.496995 27.306584 -1.213359 1.865257 -19.691460 0.000000 0.000000 0.000000 -28.647212 -8.209716 4.205907 -45.614418 -22.643559 0.380248 -3.166474 -24.857089 1.954923 0.000000 0.000000 0.000000 18.801255 16.879449 7.910691 52.196829 26.144672 3.861670 -3.591023 28.128784 0.384783 0.000000 0.000000 0.000000 
-0.001786 0.942902 0.026268 -1.299837 -4.744637 8.623108 10.450641 -0.201255 -4.491344 -4.831064 0.536869 -3.901948 7.603544 16.434430 14.152962 0.000000 0.000000 0.000000 -6.727408 0.718811 -8.205287 2.980587 -0.252372 1.364096 -5.347253 -15.936138 15.678929 0.000000 0.000000 0.000000 -3.798261 0.112543 6.245369 5.680331 -1.390391 -16.182196 -2.132221 1.260833 28.931265 -0.516472 1.411963 -21.004558 0.000000 0.000000 0.000000 -27.430096 -5.078486 2.282190 -47.536775 -18.489165 -1.282332 -6.753475 -25.583673 2.884980 0.000000 0.000000 0.000000 18.023903 14.100393 6.302297 54.201036 21.864588 1.939823 -0.291063 30.836760 1.326025 0.000000 0.000000 0.000000 
-0.002088 0.943378 0.030307 -1.307285 -4.175263 7.389539 10.406325 -0.189206 -2.775751 -4.980706 0.542010 -4.309874 7.494639 16.346427 14.561754 0.000000 0.000000 0.000000 -6.532732 0.607954 -6.392206 2.910439 -0.253824 1.170707 -5.423758 -15.918308 15.197913 0.000000 0.000000 0.000000 -3.725597 0.101410 3.855449 5.793869 -1.358040 -17.084169 -2.147599 0.940863 29.680756 0.391143 0.870222 -22.250787 0.000000 0.000000 0.000000 -26.551470 -3.271562 1.159656 -48.905414 -15.513592 -2.479590 -8.111471 -25.781008 3.257228 0.000000 0.000000 0.000000 18.097154 12.396154 5.391340 55.740621 18.313757 0.310408 1.971004 31.295867 1.973324 0.000000 0.000000 0.000000 
-0.002213 0.943795 0.032488 -1.348475 -4.074152 6.504996 10.102904 -0.171771 -1.891663 -4.653416 0.515108 -4.381287 6.848882 15.323760 13.452090 0.000000 0.000000 0.000000 -6.342993 0.528507 -5.010092 2.834494 -0.253392 0.830180 -5.282759 -15.579243 14.565375 0.000000 0.000000 0.000000 -3.407324 0.086462 2.133750 5.325865 -1.193532 -17.575842 -1.606029 1.143939 29.642413 0.881527 0.650392 -23.015263 0.000000 0.000000 0.000000 -25.319251 -2.059889 0.327820 -50.188356 -13.165660 -3.356793 -9.723192 -25.996254 3.670907 0.000000 0.000000 0.000000 17.084786 11.233053 4.767196 57.808846 15.705504 -0.824657 3.190840 30.449669 2.243472 0.000000 0.000000 0.000000 
-0.002334 0.944170 0.033884 -1.319365 -3.780333 5.944982 10.029548 -0.164096 -1.451745 -4.868742 0.530924 -4.268054 6.736527 15.176207 13.379939 0.000000 0.000000 0.000000 -6.256158 0.485509 -4.374322 2.680147 -0.240761 0.807172 -5.301436 -15.563792 14.470064 0.000000 0.000000 0.000000 -3.108064 0.084568 0.719856 4.978696 -1.043760 -18.262188 -1.406565 1.477780 29.785589 1.138188 0.576815 -23.050390 0.000000 0.000000 0.000000 -24.273666 -1.377594 -0.212585 -51.315528 -12.311210 -3.671989 -10.574305 -25.496702 3.782997 0.000000 0.000000 0.000000 16.717754 9.799426 4.115166 59.238260 13.586006 -1.836587 3.440565 28.398665 2.150752 0.000000 0.000000 0.000000 
-0.002521 0.943890 0.035237 -1.191733 -3.942281 5.409939 9.561933 -0.140792 -0.595827 -4.585114 0.509617 -4.473977 6.385778 14.584547 12.836410 0.000000 0.000000 0.000000 -6.359983 0.444084 -3.571650 2.729084 -0.252086 0.405091 -4.982869 -14.941056 13.808472 0.000000 0.000000 0.000000 -2.858665 0.096905 -0.785508 4.583829 -0.912101 -18.657734 -1.156620 1.922223 29.697791 1.234533 0.589840 -23.226945 0.000000 0.000000 0.000000 -23.060207 -0.515107 -0.777059 -52.314047 -11.383383 -4.024586 -11.936999 -25.132522 4.032606 0.000000 0.000000 0.000000 16.221430 8.570209 3.527366 60.876897 11.791706 -2.703088 3.875487 26.727966 2.117070 0.000000 0.000000 0.000000 
